<svg width="34" height="34" viewBox="0 0 34 34" fill="none" xmlns="http://www.w3.org/2000/svg">
<g clip-path="url(#clip0_193_385)">
<path d="M22.2473 7.43767H26.4973M22.2473 11.6877H26.4973M2.125 9.56267C2.125 10.6898 2.57277 11.7708 3.3698 12.5679C4.16683 13.3649 5.24783 13.8127 6.375 13.8127C7.50217 13.8127 8.58317 13.3649 9.3802 12.5679C10.1772 11.7708 10.625 10.6898 10.625 9.56267C10.625 8.4355 10.1772 7.35449 9.3802 6.55746C8.58317 5.76043 7.50217 5.31267 6.375 5.31267C5.24783 5.31267 4.16683 5.76043 3.3698 6.55746C2.57277 7.35449 2.125 8.4355 2.125 9.56267ZM11.6875 24.4377V21.2502C11.6875 19.8412 11.1278 18.49 10.1315 17.4937C9.13522 16.4974 7.78396 15.9377 6.375 15.9377C4.96604 15.9377 3.61478 16.4974 2.6185 17.4937C1.62221 18.49 1.0625 19.8412 1.0625 21.2502V24.4377H3.1875L4.25 32.9377H8.5L9.5625 24.4377H11.6875ZM24.3723 1.06267C22.7395 1.05537 21.1395 1.52065 19.7652 2.40238C18.3909 3.28411 17.301 4.54463 16.6271 6.0319C15.9532 7.51917 15.724 9.16966 15.9671 10.7843C16.2102 12.3989 16.9153 13.9087 17.9973 15.1316L16.9348 21.2516L22.4768 17.8332C23.6459 18.1086 24.8601 18.1331 26.0394 17.9051C27.2186 17.677 28.3361 17.2016 29.3182 16.5102C30.3003 15.8188 31.1247 14.927 31.7371 13.8937C32.3494 12.8604 32.7357 11.7091 32.8706 10.5156C33.0055 9.32207 32.8859 8.11353 32.5197 6.96964C32.1534 5.82575 31.5489 4.77248 30.7459 3.87927C29.9429 2.98607 28.9596 2.27322 27.861 1.78772C26.7624 1.30222 25.5734 1.05511 24.3723 1.06267Z" stroke="white" stroke-width="1.5" stroke-linecap="round" stroke-linejoin="round"/>
</g>
<defs>
<clipPath id="clip0_193_385">
<rect width="34" height="34" fill="white"/>
</clipPath>
</defs>
</svg>
