<svg width="34" height="34" viewBox="0 0 34 34" fill="none" xmlns="http://www.w3.org/2000/svg">
<path d="M2.125 19.5245C2.125 19.5245 6.375 17.7083 9.91667 17.7083C12.415 17.7083 15.1583 18.7127 16.9957 19.5408C18.4053 20.1755 19.2164 20.5764 19.5387 22.0887C19.7632 23.1391 19.0088 24.8901 17.9378 24.9765L17.1835 25.0375M17.1835 25.0375C15.4537 25.0375 12.7762 24.5246 12.7762 24.5246M17.1835 25.0375C19.5826 25.0375 25.8981 23.8977 28.1364 23.4791C28.6705 23.38 29.2237 23.307 29.7316 23.4982C30.3705 23.7398 31.2276 24.3228 31.637 25.7295C31.9572 26.8288 31.1886 27.8864 30.1212 28.2993C26.9903 29.5106 20.4616 31.875 17.1835 31.875C8.5 31.875 2.125 29.6955 2.125 29.6955M20.9695 6.375C19.2291 5.66667 19.3623 2.125 22.2502 2.125C24.7775 2.125 25.5 4.95833 25.5 6.375C25.5 4.95833 26.2225 2.125 28.7498 2.125C31.6377 2.125 31.7709 5.66667 30.0298 6.375" stroke="white" stroke-width="1.5" stroke-linecap="round" stroke-linejoin="round"/>
<path d="M25.5 6.40688V16.3235M31.79 14.0994C31.7121 15.2448 30.8309 16.0926 29.6855 16.1691C28.2921 16.2563 26.8962 16.2972 25.5 16.2917C24.1038 16.2972 22.7079 16.2563 21.3145 16.1691C20.1691 16.0926 19.2886 15.2448 19.21 14.0994C19.1618 13.3981 19.125 12.4844 19.125 11.3333C19.125 10.1823 19.1618 9.26854 19.21 8.56729C19.2879 7.42192 20.1691 6.57404 21.3145 6.49754C22.7079 6.41036 24.1038 6.36949 25.5 6.375C27.3282 6.375 28.7073 6.43238 29.6855 6.49754C30.8309 6.57404 31.7114 7.42192 31.79 8.56729C31.8382 9.26854 31.875 10.1823 31.875 11.3333C31.875 12.4844 31.8382 13.3981 31.79 14.0994Z" stroke="white" stroke-width="1.5" stroke-linecap="round" stroke-linejoin="round"/>
</svg>
