<svg width="34" height="34" viewBox="0 0 34 34" fill="none" xmlns="http://www.w3.org/2000/svg">
<path d="M19.8334 21.2498C19.8334 22.8223 18.5726 24.0832 17.0001 24.0832C16.2486 24.0832 15.528 23.7847 14.9966 23.2533C14.4653 22.722 14.1667 22.0013 14.1667 21.2498C14.1667 19.6773 15.4276 18.4165 17.0001 18.4165C17.7515 18.4165 18.4722 18.715 19.0036 19.2464C19.5349 19.7777 19.8334 20.4984 19.8334 21.2498ZM18.5442 28.3332C18.7142 29.3532 19.0684 30.3023 19.5642 31.1665H8.50008C7.74863 31.1665 7.02797 30.868 6.49661 30.3366C5.96526 29.8053 5.66675 29.0846 5.66675 28.3332V14.1665C5.66675 12.594 6.92758 11.3332 8.50008 11.3332H9.91675V8.49984C9.91675 4.58984 13.0901 1.4165 17.0001 1.4165C20.9101 1.4165 24.0834 4.58984 24.0834 8.49984V11.3332H25.5001C26.2515 11.3332 26.9722 11.6317 27.5036 12.163C28.0349 12.6944 28.3334 13.4151 28.3334 14.1665V18.544C27.8659 18.4732 27.3984 18.4165 26.9167 18.4165C26.4351 18.4165 25.9676 18.4732 25.5001 18.544V14.1665H8.50008V28.3332H18.5442ZM12.7501 11.3332H21.2501V8.49984C21.2501 6.14817 19.3517 4.24984 17.0001 4.24984C14.6484 4.24984 12.7501 6.14817 12.7501 8.49984V11.3332ZM30.2318 22.4398L25.1459 27.5257L22.8934 25.2732L21.2501 26.9165L25.1459 31.1665L31.8751 24.4373L30.2318 22.4398Z" fill="white"/>
</svg>
