<svg width="32" height="29" viewBox="0 0 32 29" fill="none" xmlns="http://www.w3.org/2000/svg">
<path d="M1.41667 1.41667V0C1.04094 0 0.680609 0.149255 0.414932 0.414932C0.149255 0.680609 0 1.04094 0 1.41667H1.41667ZM17 1.41667H18.4167C18.4167 1.04094 18.2674 0.680609 18.0017 0.414932C17.7361 0.149255 17.3757 0 17 0V1.41667ZM17 9.91667V8.5C16.6243 8.5 16.2639 8.64926 15.9983 8.91493C15.7326 9.18061 15.5833 9.54094 15.5833 9.91667H17ZM1.41667 2.83333H17V0H1.41667V2.83333ZM15.5833 1.41667V24.0833H18.4167V1.41667H15.5833ZM2.83333 21.25V1.41667H0V21.25H2.83333ZM17 11.3333H24.0833V8.5H17V11.3333ZM28.3333 15.5833V21.25H31.1667V15.5833H28.3333ZM18.4167 24.0833V9.91667H15.5833V24.0833H18.4167ZM25.0849 25.0849C24.8193 25.3505 24.459 25.4997 24.0833 25.4997C23.7077 25.4997 23.3474 25.3505 23.0817 25.0849L21.0786 27.0881C21.8756 27.8848 22.9564 28.3324 24.0833 28.3324C25.2103 28.3324 26.2911 27.8848 27.0881 27.0881L25.0849 25.0849ZM23.0817 23.0818C23.3474 22.8162 23.7077 22.667 24.0833 22.667C24.459 22.667 24.8193 22.8162 25.0849 23.0818L27.0881 21.0786C26.2911 20.2818 25.2103 19.8342 24.0833 19.8342C22.9564 19.8342 21.8756 20.2818 21.0786 21.0786L23.0817 23.0818ZM8.08492 25.0849C7.81925 25.3505 7.45898 25.4997 7.08333 25.4997C6.70768 25.4997 6.34741 25.3505 6.08175 25.0849L4.07858 27.0881C4.87558 27.8848 5.95639 28.3324 7.08333 28.3324C8.21028 28.3324 9.29109 27.8848 10.0881 27.0881L8.08492 25.0849ZM6.08175 23.0818C6.34741 22.8162 6.70768 22.667 7.08333 22.667C7.45898 22.667 7.81925 22.8162 8.08492 23.0818L10.0881 21.0786C9.29109 20.2818 8.21028 19.8342 7.08333 19.8342C5.95639 19.8342 4.87558 20.2818 4.07858 21.0786L6.08175 23.0818ZM25.0849 23.0818C25.3626 23.358 25.5 23.7193 25.5 24.0833H28.3333C28.3333 22.9982 27.9182 21.9073 27.0881 21.0786L25.0849 23.0818ZM25.5 24.0833C25.4999 24.459 25.3506 24.8193 25.0849 25.0849L27.0881 27.0881C27.8852 26.2912 28.3331 25.2104 28.3333 24.0833H25.5ZM21.25 22.6667H17V25.5H21.25V22.6667ZM23.0817 25.0849C22.8161 24.8193 22.6667 24.459 22.6667 24.0833H19.8333C19.8333 25.1685 20.2484 26.2593 21.0786 27.0881L23.0817 25.0849ZM22.6667 24.0833C22.6667 23.7076 22.8161 23.3474 23.0817 23.0818L21.0786 21.0786C20.2815 21.8754 19.8336 22.9563 19.8333 24.0833H22.6667ZM6.08175 25.0849C5.81606 24.8193 5.66675 24.459 5.66667 24.0833H2.83333C2.83333 25.1685 3.24842 26.2593 4.07858 27.0881L6.08175 25.0849ZM5.66667 24.0833C5.66675 23.7076 5.81606 23.3474 6.08175 23.0818L4.07858 21.0786C3.2815 21.8754 2.83357 22.9563 2.83333 24.0833H5.66667ZM17 22.6667H9.91667V25.5H17V22.6667ZM8.08492 23.0818C8.36258 23.358 8.5 23.7193 8.5 24.0833H11.3333C11.3333 22.9982 10.9183 21.9073 10.0881 21.0786L8.08492 23.0818ZM8.5 24.0833C8.49992 24.459 8.35061 24.8193 8.08492 25.0849L10.0881 27.0881C10.8852 26.2912 11.3331 25.2104 11.3333 24.0833H8.5ZM28.3333 21.25C28.3333 21.6257 28.1841 21.9861 27.9184 22.2517C27.6527 22.5174 27.2924 22.6667 26.9167 22.6667V25.5C28.0438 25.5 29.1248 25.0522 29.9219 24.2552C30.7189 23.4582 31.1667 22.3772 31.1667 21.25H28.3333ZM24.0833 11.3333C25.2105 11.3333 26.2915 11.7811 27.0885 12.5781C27.8856 13.3752 28.3333 14.4562 28.3333 15.5833H31.1667C31.1667 14.6531 30.9834 13.732 30.6275 12.8727C30.2715 12.0133 29.7498 11.2324 29.092 10.5747C28.4343 9.91691 27.6534 9.39516 26.794 9.03919C25.9346 8.68322 25.0135 8.5 24.0833 8.5V11.3333ZM0 21.25C0 22.3772 0.447767 23.4582 1.2448 24.2552C2.04183 25.0522 3.12283 25.5 4.25 25.5V22.6667C3.87428 22.6667 3.51394 22.5174 3.24827 22.2517C2.98259 21.9861 2.83333 21.6257 2.83333 21.25H0Z" fill="white"/>
</svg>
