<svg width="19" height="17" viewBox="0 0 19 17" fill="none" xmlns="http://www.w3.org/2000/svg">
<path d="M1.94322 9.21378L8.57564 15.9064C8.83783 16.171 8.96892 16.3033 9.12761 16.3301C9.18268 16.3394 9.23891 16.3394 9.29397 16.3301C9.45266 16.3033 9.58375 16.171 9.84595 15.9064L16.4784 9.21378C18.1935 7.48307 18.405 4.76568 16.9783 2.79043L16.5134 2.14679C14.7196 -0.336719 10.9084 0.0599492 9.66447 2.85962C9.48978 3.25278 8.9318 3.25278 8.75711 2.85962C7.51319 0.0599496 3.70194 -0.336723 1.90815 2.14679L1.44326 2.79043C0.0165751 4.76568 0.228083 7.48308 1.94322 9.21378Z" stroke="black"/>
</svg>
