<svg width="18" height="16" viewBox="0 0 18 16" fill="none" xmlns="http://www.w3.org/2000/svg">
<path d="M1.44322 8.7133L8.07564 15.406C8.33783 15.6705 8.46892 15.8028 8.62761 15.8296C8.68268 15.8389 8.73891 15.8389 8.79397 15.8296C8.95266 15.8028 9.08375 15.6705 9.34595 15.406L15.9784 8.71329C17.6935 6.98258 17.905 4.26519 16.4783 2.28995L16.0134 1.6463C14.2196 -0.837208 10.4084 -0.440539 9.16447 2.35913C8.98978 2.75229 8.4318 2.75229 8.25711 2.35913C7.01319 -0.440539 3.20194 -0.837212 1.40815 1.6463L0.943258 2.28994C-0.483425 4.26519 -0.271917 6.98259 1.44322 8.7133Z" fill="#BC1F1E" fill-opacity="0.78"/>
</svg>
